<svg xmlns="http://www.w3.org/2000/svg" width="138" height="16" fill="none"><path fill="#fff" d="M2.164 5.791 0 7.885l2.164 2.102 2.164-2.102-2.164-2.094ZM135.559 5.795l-2.164 2.09 2.171 2.102 2.16-2.102-2.167-2.09Z"/><path fill="#fff" fill-rule="evenodd" d="M20.926 7.031a1.59 1.59 0 0 0 .163-.705V1.669a1.656 1.656 0 0 0-.51-1.176A1.774 1.774 0 0 0 19.36 0h-5.927v15.782h5.931a1.79 1.79 0 0 0 1.213-.498 1.67 1.67 0 0 0 .515-1.172V8.951a1.85 1.85 0 0 0-.173-.737 1.909 1.909 0 0 0-.456-.614c.196-.154.354-.348.462-.569Zm-4.691-4.326h2.031v3.811h-2.031v-3.81Zm0 6.516h2.031v3.833h-2.031V9.221ZM33.088.493A1.774 1.774 0 0 0 31.871 0h-4.207c-.227 0-.452.042-.662.126-.21.084-.4.207-.56.362-.161.155-.289.34-.375.542-.087.203-.131.42-.13.64v12.446c.003.441.186.864.51 1.176.323.312.76.49 1.217.493h4.207a1.79 1.79 0 0 0 1.213-.497c.322-.312.507-.732.515-1.172V1.669a1.656 1.656 0 0 0-.51-1.176Zm-4.344 2.212h2.028l.004 10.35h-2.032V2.704ZM42.334 9.221l1.137 6.56h2.793l-1.168-6.717c.297-.13.548-.338.725-.602.177-.263.271-.57.272-.884V1.669a1.609 1.609 0 0 0-.126-.635 1.654 1.654 0 0 0-.369-.54 1.72 1.72 0 0 0-.554-.364 1.769 1.769 0 0 0-.656-.13H38.46v15.782h2.8v-6.56h1.073Zm-1.08-6.516h2.031v3.811h-2.031v-3.81ZM57.736.493A1.774 1.774 0 0 0 56.518 0h-4.221a1.755 1.755 0 0 0-1.209.496c-.319.312-.498.734-.496 1.173v12.447c.003.441.187.864.51 1.176.323.312.76.49 1.218.493h4.198a1.79 1.79 0 0 0 1.214-.497c.322-.312.507-.732.514-1.172V1.669a1.656 1.656 0 0 0-.51-1.176Zm-4.348 2.212h2.031v10.35h-2.03V2.704ZM70.246.493A1.774 1.774 0 0 0 69.028 0h-5.927v15.785h5.927a1.79 1.79 0 0 0 1.213-.497 1.67 1.67 0 0 0 .515-1.172V1.669a1.656 1.656 0 0 0-.51-1.176Zm-4.344 2.212h2.03v10.35h-2.03V2.704Z" clip-rule="evenodd"/><path fill="#fff" d="M78.551 0h-2.8v15.782h2.8V0ZM91.015 15.782V0h-2.811v6.469L86.15 0h-2.778v15.782h2.789V8.888l2.054 6.894h2.8ZM103.014 7.01a1.773 1.773 0 0 0-1.217-.494h-3.119v-3.81h2.031v2.789l2.823-.633V1.669a1.652 1.652 0 0 0-.51-1.176A1.775 1.775 0 0 0 101.804 0h-4.206c-.227 0-.45.044-.66.128-.209.084-.398.207-.558.362-.16.155-.287.34-.373.542-.086.202-.13.419-.13.637v5.89c0 .22.046.436.133.638.087.202.215.385.375.54.16.154.351.276.56.36.21.082.434.125.66.124h3.104v3.837h-2.031v-2.819l-2.8.63v3.247c.003.44.186.861.507 1.174.322.312.757.49 1.213.495h4.199a1.788 1.788 0 0 0 1.213-.497 1.67 1.67 0 0 0 .515-1.172v-5.93a1.653 1.653 0 0 0-.511-1.177ZM116.387 15.785l-2.615-7.914L116.41 0h-2.846l-2.149 6.516h-.231V0h-2.801v15.782h2.801V9.225h.257l2.1 6.469.023.091h2.823ZM123.773 0h-2.801v15.782h2.801V0Z"/></svg>